
<svg version="1.1" xmlns="http://www.w3.org/2000/svg" width="216px" height="224px" viewBox="0 0 216 224" preserveAspectRatio="xMidYMid meet">
 <g fill="#fbfcfd">
  <path d="M98.4 219.1 c-0.2 -0.2 -2 -0.6 -4.1 -0.8 -4.6 -0.4 -8.6 -1 -9.3 -1.4 -0.3 -0.1 -0.9 -0.3 -1.5 -0.4 -0.5 -0.1 -1.7 -0.5 -2.5 -0.8 -4.3 -1.7 -13.7 -4.9 -14.7 -5 -0.7 0 -1.3 -0.4 -1.3 -0.9 0 -0.5 -0.4 -0.7 -0.9 -0.4 -0.5 0.4 -1.1 0.2 -1.3 -0.3 -0.1 -0.5 -1 -1.1 -1.8 -1.3 -0.8 -0.2 -1.7 -0.5 -2 -0.8 -0.3 -0.3 -3.8 -2.7 -7.9 -5.5 -11.2 -7.6 -11.3 -7.7 -16.1 -12.9 -2.5 -2.7 -5.4 -5.9 -6.6 -7.1 -1.2 -1.3 -2.4 -3 -2.7 -3.9 -0.4 -0.9 -1.1 -1.6 -1.7 -1.6 -0.5 0 -1 -0.6 -1 -1.4 0 -0.8 -0.4 -1.6 -0.8 -1.8 -1.1 -0.4 -11.5 -21.6 -11.9 -24.1 -0.2 -1.1 -0.8 -2.6 -1.4 -3.4 -0.6 -0.7 -0.9 -1.3 -0.6 -1.3 0.3 0 0.1 -1.5 -0.4 -3.2 -2.2 -7.2 -2.9 -13.6 -2.9 -26.8 0 -13.2 0.7 -19.6 2.9 -26.7 0.5 -1.8 0.7 -3.3 0.4 -3.3 -0.3 0 0 -0.6 0.6 -1.3 0.6 -0.8 1.2 -2.3 1.4 -3.4 0.4 -2.5 10.8 -23.7 11.9 -24.1 0.4 -0.2 0.8 -1 0.8 -1.8 0 -0.8 0.5 -1.4 1 -1.4 0.6 0 1.3 -0.7 1.7 -1.6 0.3 -0.9 1.5 -2.6 2.7 -3.9 1.2 -1.2 4.1 -4.4 6.6 -7.1 4.8 -5.2 4.9 -5.3 16.1 -12.9 4.1 -2.7 7.6 -5.2 7.9 -5.5 0.3 -0.3 1.2 -0.6 2 -0.8 0.8 -0.2 1.7 -0.8 1.8 -1.3 0.2 -0.5 0.8 -0.7 1.3 -0.3 0.5 0.3 0.9 0.1 0.9 -0.4 0 -0.5 0.6 -0.9 1.3 -0.9 1 -0.1 10.4 -3.3 14.7 -5 0.8 -0.3 2 -0.7 2.5 -0.8 0.6 -0.1 1.2 -0.3 1.5 -0.4 0.6 -0.3 3.7 -0.8 9.5 -1.6 5.2 -0.6 22.8 -0.6 28 0 5.8 0.8 8.9 1.3 9.5 1.6 0.3 0.1 1 0.3 1.5 0.4 0.6 0.1 1.7 0.5 2.5 0.8 4.3 1.7 13.7 4.9 14.8 5 0.6 0 1.2 0.4 1.2 0.9 0 0.5 0.4 0.7 0.9 0.4 0.5 -0.4 1.1 -0.2 1.3 0.3 0.1 0.5 1 1.1 1.8 1.3 0.8 0.2 1.7 0.5 2 0.8 0.3 0.3 2.5 1.8 5 3.4 2.5 1.6 6.9 4.7 9.9 7 4.8 3.6 7.3 6 15.7 15.1 1.2 1.3 2.4 3 2.7 3.9 0.4 0.9 1.1 1.6 1.7 1.6 0.5 0 1 0.6 1 1.4 0 0.8 0.4 1.6 0.8 1.8 1.1 0.4 11.5 21.6 11.9 24.1 0.2 1.1 0.8 2.6 1.4 3.4 0.6 0.7 0.9 1.3 0.6 1.3 -0.3 0 -0.1 1.5 0.4 3.3 2.2 7.1 2.9 13.5 2.9 26.7 0 13.2 -0.7 19.6 -2.9 26.8 -0.5 1.7 -0.7 3.2 -0.4 3.2 0.3 0 0 0.6 -0.6 1.3 -0.6 0.8 -1.2 2.3 -1.4 3.4 -0.4 2.5 -10.8 23.7 -11.9 24.1 -0.4 0.2 -0.8 1 -0.8 1.7 0 0.7 -0.7 1.5 -1.5 1.9 -0.8 0.3 -1.5 1 -1.5 1.5 0 0.6 -1 2.1 -2.2 3.4 -1.3 1.4 -4.3 4.6 -6.8 7.3 -4.8 5.2 -4.9 5.3 -16.1 12.9 -4.1 2.8 -7.6 5.2 -7.9 5.5 -0.3 0.3 -1.2 0.6 -2 0.8 -0.8 0.2 -1.7 0.8 -1.8 1.3 -0.2 0.5 -0.8 0.7 -1.3 0.3 -0.5 -0.3 -0.9 -0.1 -0.9 0.4 0 0.5 -0.6 0.9 -1.2 0.9 -1.1 0.1 -10.5 3.3 -14.8 5 -0.8 0.3 -1.9 0.7 -2.5 0.8 -0.5 0.1 -1.2 0.3 -1.5 0.4 -0.6 0.3 -3.8 0.8 -9.5 1.6 -5.1 0.6 -23.5 1.1 -24.1 0.6z m28.6 -17.1 c0 -3.1 -1.7 -3.9 -3.7 -1.9 -0.8 0.8 -0.7 1.6 0.5 3 2.3 2.7 3.2 2.4 3.2 -1.1z m14.2 -4.5 c-1.2 -2.2 -2.7 -0.2 -1.8 2.2 0.5 1.2 1 1.3 1.7 0.6 0.7 -0.7 0.8 -1.7 0.1 -2.8z m-85.2 -10.5 c0 -1.1 -0.4 -2 -1 -2 -0.5 0 -1 0.9 -1 2 0 1.1 0.5 2 1 2 0.6 0 1 -0.9 1 -2z m125 -16 c0.6 -1.1 0.8 -3.1 0.4 -4.6 l-0.7 -2.6 -1.9 3 c-1.7 2.8 -1.6 6.2 0.3 6.2 0.4 0 1.3 -0.9 1.9 -2z m-12 -11.4 c0 -0.2 -1.6 -3.3 -3.5 -6.9 -1.9 -3.6 -3.5 -7.9 -3.5 -9.6 0 -2.1 -0.6 -3.4 -1.7 -3.8 -2.6 -1 -3.3 -2.3 -3.3 -7 0 -3.7 -0.3 -4.3 -2.5 -4.9 -2.5 -0.6 -2.9 -1.4 -3.9 -8.8 -0.5 -3.9 -3 -7.6 -5.1 -7.6 -1.7 0 -5.5 -8.6 -5.5 -12.8 -0.1 -3.5 -3.6 -9.2 -5.7 -9.2 -0.5 0 -6.2 -10.7 -12.7 -23.7 l-11.9 -23.8 -7.6 15.3 c-7 14.1 -7.8 15.2 -10.3 15.2 -2.2 0 -2.9 0.6 -3.4 2.8 -0.4 1.5 -1.2 3.3 -1.7 4 -0.6 0.8 -1 3.1 -0.8 5.3 0.2 3.1 -1.1 6.6 -7.1 18.4 -5.2 10.3 -7.8 14.5 -9 14.5 -1.4 0 -1.8 0.9 -1.8 4 0 3.3 -0.3 4 -2 4 -1.6 0 -2 0.7 -2 3.6 0 2.5 -2.1 7.6 -7 16.8 -3.8 7.3 -7 13.6 -7 13.9 0 0.4 26.8 0.7 59.5 0.7 32.7 0 59.5 -0.2 59.5 -0.4z m-143 -18.1 c0 -0.9 -0.6 -1.2 -1.5 -0.9 -0.8 0.4 -1.5 1 -1.5 1.5 0 0.5 0.7 0.9 1.5 0.9 0.8 0 1.5 -0.7 1.5 -1.5z m170.4 -56.4 c0.3 -0.4 -0.6 -1.9 -1.9 -3.1 -2 -1.9 -2.5 -2 -2.5 -0.8 0 3.9 2.9 6.4 4.4 3.9z m-7.1 -16.8 c-0.7 -0.2 -1.3 -1.4 -1.3 -2.5 0 -1.1 -0.5 -1.8 -1.1 -1.6 -0.6 0.2 -1 0.7 -1 1.1 0.1 0.4 0.1 1.4 0.1 2.2 0 0.9 0.9 1.5 2.3 1.4 1.2 0 1.6 -0.3 1 -0.6z m-16.3 -14.1 c-0.5 -0.2 -1 -1.9 -1 -3.8 0 -2.7 0.4 -3.4 2 -3.4 1.3 0 2 -0.7 2 -2 0 -1.3 -0.7 -2 -1.8 -2 -2 0 -6.4 2.9 -4.4 3 2 0 1.5 8 -0.5 9.6 -1.5 1.1 -1.3 1.2 1.5 0.1 1.8 -0.6 2.8 -1.3 2.2 -1.5z m-128.5 -1.3 c2.1 -0.4 3.5 -4.9 1.6 -4.9 -0.6 0 -1.1 0.5 -1.1 1 0 0.6 -0.9 1 -2 1 -1.5 0 -2 0.7 -2 2.8 0 1.5 0.4 2.2 0.8 1.6 0.4 -0.7 1.6 -1.3 2.7 -1.5z m112.3 -15.2 c0.4 -3.1 -0.5 -3.5 -2.4 -0.9 -1.9 2.4 -1.7 4.4 0.4 4 1 -0.2 1.8 -1.4 2 -3.1z m-91.8 -2.3 c0 -0.8 -0.7 -1.4 -1.5 -1.4 -0.8 0 -1.5 0.5 -1.5 1 0 0.6 -0.9 1 -2.1 1 -1.1 0 -1.8 0.4 -1.5 0.8 0.8 1.4 6.6 0.1 6.6 -1.4z m75.5 -7.4 c0.3 -0.6 -0.1 -1.7 -1 -2.6 -0.9 -0.9 -1.7 -1.5 -1.8 -1.3 -0.1 0.2 -0.8 1.4 -1.5 2.7 -1.1 2 -1 2.2 1.2 2.2 1.4 0 2.8 -0.5 3.1 -1z m-56.8 -2.7 c-0.3 -0.2 -1.6 -0.1 -2.9 0.3 l-2.3 0.8 2.5 0.6 c2.3 0.6 3.9 -0.4 2.7 -1.7z m19.3 -2.9 c0 -0.8 -0.9 -1.4 -2 -1.4 -1.9 0 -2.8 2.8 -1.3 4.3 0.9 0.9 3.3 -1.2 3.3 -2.9z m18.8 0.9 c-0.5 -2.5 -2.8 -2.8 -2.8 -0.4 0 1.2 0.6 2.1 1.6 2.1 0.9 0 1.4 -0.7 1.2 -1.7z"/>
 </g>
 <g fill="#f2f4f7">
  <path d="M112.7 207.3 c-0.4 -0.3 -0.7 -2 -0.7 -3.7 l0.1 -3.1 1.4 3.4 c0.8 1.8 1.5 3.5 1.5 3.7 0 0.6 -1.6 0.5 -2.3 -0.3z"/>
  <path d="M121.4 206.5 c-0.4 -0.8 -1.7 -1.5 -3 -1.5 -4.1 0 -4 -2.8 0.2 -6.6 2.7 -2.5 4.5 -3.4 6.1 -3.1 1.4 0.2 2.3 -0.1 2.3 -0.8 0 -0.6 0.9 -2 2 -3 2 -1.8 2.1 -1.8 3.6 0.3 2 2.9 4 2.8 5.6 -0.5 2.4 -4.9 5.2 -3.9 6.1 2.1 l0.6 3.8 -3.4 -0.5 c-3.3 -0.5 -3.5 -0.4 -3.5 2.4 0 3.1 -1.4 3.9 -2.4 1.4 -0.8 -2.2 -4.7 -1.9 -5.3 0.5 -0.6 2.3 -4.3 2.7 -4.3 0.4 0 -0.8 -0.4 -1.2 -1 -0.9 -0.5 0.3 -1 2.2 -1 4.1 0 3.5 -1.6 4.6 -2.6 1.9z"/>
  <path d="M68 202.3 c-1.4 -0.9 -2.7 -1.8 -2.9 -2 -0.2 -0.1 0.4 -1.2 1.4 -2.3 3.4 -3.8 9.5 -1.9 9.5 3 0 2.6 -0.4 3 -2.8 3 -1.5 0 -3.9 -0.8 -5.2 -1.7z"/>
  <path d="M151.3 199.1 c0.2 -1.1 -0.4 -3.3 -1.4 -5 -2.1 -3.4 -2.5 -6.1 -0.9 -6.1 0.6 0 1 0.4 1 0.9 0 0.4 1.1 0.6 2.4 0.4 2.3 -0.5 2.4 -0.3 2.3 4.6 -0.2 3.5 -0.6 5.1 -1.5 5.1 -0.7 0 -1 0.5 -0.7 1 0.3 0.6 0.1 1 -0.6 1 -0.6 0 -0.9 -0.8 -0.6 -1.9z"/>
  <path d="M57.3 196.1 c-1.8 -0.9 -3.3 -2.1 -3.3 -2.8 0 -0.7 -1.2 -1 -3 -0.8 -3.8 0.5 -4.7 -1.1 -2.1 -3.9 1.3 -1.4 1.8 -2.9 1.4 -4.4 -0.8 -3 -3.3 -2.8 -3.3 0.3 0 1.8 -0.5 2.5 -2 2.5 -1.1 0 -2 0.5 -2 1 0 0.6 -0.4 1 -1 1 -1.7 0 -1.1 -3.8 0.8 -4.3 1.2 -0.3 1.3 -0.5 0.2 -0.6 -0.8 0 -2.1 -1 -2.8 -2.2 -1.1 -1.8 -1.1 -2.4 0.4 -4 1.8 -2 7.4 -2.6 7.4 -0.8 0 0.8 0.5 0.7 1.6 -0.2 1.4 -1.1 1.8 -1.1 2.8 0.2 0.6 0.9 1.7 1.4 2.4 1.1 0.7 -0.2 1.6 0.5 1.9 1.6 0.3 1.1 1.1 2.3 1.9 2.6 1.1 0.4 1.3 1.6 0.8 4.8 l-0.5 4.3 1.9 -2.2 c3 -3.4 4 -2.9 3.2 1.8 -1.1 5.9 -2.7 7.1 -6.7 5z"/>
  <path d="M159.5 188 c-0.4 -0.7 -1.9 -0.8 -3.6 -0.5 -2.4 0.5 -2.8 0.4 -2.3 -0.9 0.4 -1.1 0.1 -1.6 -1 -1.6 -2.2 0 -2 -2.3 0.3 -4.4 1.4 -1.3 2.4 -1.4 4.5 -0.7 2.1 0.9 2.6 0.8 2.6 -0.5 0 -1.3 0.3 -1.4 1.5 -0.4 1.1 0.9 1.2 1.7 0.4 3.2 -0.6 1.1 -0.9 2.9 -0.6 3.9 0.6 2.1 -0.8 3.5 -1.8 1.9z"/>
  <path d="M174.9 177 c-0.1 -0.5 -0.2 -1.5 -0.3 -2.1 0 -0.6 -0.9 -1.7 -2 -2.4 -1.8 -1.3 -1.4 -4.1 0.5 -3 0.5 0.4 0.9 -0.2 0.9 -1.2 0 -1 1.3 -3.8 3 -6.3 2.1 -3.3 4 -4.8 6.7 -5.6 l3.8 -1.1 -2.7 -1.3 -2.8 -1.3 2.5 -2.5 c2 -1.9 2.3 -2.8 1.4 -3.9 -1.9 -2.2 -0.3 -2.6 5 -1.2 5.3 1.3 7 3.9 2.7 3.9 -2.1 0 -3.6 1.6 -3.6 4 0 0.5 0.9 1.2 2 1.5 2 0.6 2.9 3.5 1.1 3.5 -0.5 0 -1.1 1.2 -1.3 2.8 -0.3 2.5 -0.6 2.7 -4.3 2.4 l-4 -0.2 2.4 2 c2.1 1.8 2.2 2.2 0.9 3.3 -0.9 0.7 -1.8 2.4 -2.2 3.9 -0.3 1.5 -1.4 3.1 -2.4 3.6 -3.1 1.6 -7.2 2.3 -7.3 1.2z"/>
  <path d="M32 174.1 c-1.9 -0.5 -2.5 -1.4 -2.7 -3.9 -0.1 -2.8 0.2 -3.2 2.3 -3.2 1.4 0 2.4 -0.6 2.4 -1.5 0 -0.8 1.1 -2.2 2.4 -3 2.4 -1.6 2.6 -1.5 5.6 1.6 4 4.2 3.6 6.3 -1.2 6.7 -2.6 0.2 -3.9 0.9 -4.3 2.3 -0.7 2 -0.7 2.1 -4.5 1z"/>
  <path d="M169.8 163.3 c-1 -0.2 -1.8 -1.1 -1.8 -1.9 0 -2.3 6.4 -1.4 6.8 0.9 0.3 1.7 -1.2 2 -5 1z"/>
  <path d="M31.5 157.9 c-0.4 -0.6 -1.3 -0.8 -2.1 -0.5 -2.5 1 -1.5 -2.4 1 -3.6 2.9 -1.2 5.4 -0.5 6.3 1.8 1 2.6 -3.8 4.7 -5.2 2.3z"/>
  <path d="M20 146.1 c0 -1.2 -0.5 -2.1 -1 -2.1 -1.4 0 -5.9 -5.1 -6 -6.6 0 -0.6 0.7 -1.8 1.6 -2.5 1.4 -1.1 1.9 -1 3.4 0.9 1.4 1.7 2.5 2.1 4.8 1.6 2.6 -0.5 3 -1 2.7 -3.3 -0.2 -1.8 -0.8 -2.5 -1.9 -2.3 -3.1 0.6 -1.6 -2.6 1.6 -3.2 4.2 -0.8 5.5 0.6 3.9 4 -0.9 2.1 -0.9 2.9 0 3.4 0.7 0.5 0.9 1.9 0.4 3.9 -0.5 2.4 -0.3 3.1 0.9 3.1 0.9 0 1.6 0.5 1.6 1 0 0.6 -1.3 1 -2.8 1 -1.5 0 -3.2 0.4 -3.7 0.9 -0.6 0.5 -2 1.2 -3.2 1.6 -1.9 0.5 -2.3 0.2 -2.3 -1.4z"/>
  <path d="M161 143 c0 -1.1 -0.4 -2 -1 -2 -0.5 0 -1 -1.3 -1 -3 0 -2 -0.5 -3 -1.5 -3 -1 0 -1.5 -1 -1.5 -3 0 -2 -0.5 -3 -1.5 -3 -1 0 -1.5 -1 -1.5 -3 0 -1.8 -0.5 -3 -1.3 -3 -2.1 0 -6.7 -10.5 -6.7 -15.3 0.1 -4.1 0.1 -4.2 1.5 -1.7 0.8 1.4 1.4 2.1 1.5 1.6 0 -1.6 4 2.7 5.7 6.1 0.8 1.8 1.2 4 0.9 4.9 -0.8 2 0.2 5.6 1.3 4.9 0.4 -0.2 1.7 0.4 2.9 1.5 1.5 1.5 2 2.8 1.6 5.2 -0.5 3.6 0 4.7 3.1 6.4 1.4 0.8 2 2.2 2 4.8 0 3.1 -0.3 3.6 -2.2 3.6 -1.6 0 -2.3 -0.6 -2.3 -2z"/>
  <path d="M188.3 141.3 c-1.6 -0.6 -1.7 -5.9 -0.2 -6.8 1.9 -1.2 9.9 0.5 9.9 2.1 0 0.8 -0.5 1.2 -1.1 0.9 -0.5 -0.4 -2.1 0.5 -3.4 1.9 -2.4 2.6 -3 2.8 -5.2 1.9z"/>
  <path d="M60.7 129 c0.3 -1.2 0 -2 -0.6 -2 -0.8 0 -1.1 -1.1 -0.9 -2.7 0.2 -2.3 0.8 -2.8 3.1 -2.8 3.1 0.1 3.5 -1.2 1 -3.1 -1.7 -1.3 -1.7 -1.5 0.1 -2.9 1.1 -0.8 2.6 -1.5 3.4 -1.5 0.8 0 2.1 -0.8 2.8 -1.7 1.2 -1.6 1.3 -1.4 1.4 2 0 4.2 -1.3 7.3 -4.2 9.8 -1 0.9 -1.8 2.8 -1.8 4.3 0 2.1 -0.5 2.6 -2.4 2.6 -1.9 0 -2.3 -0.4 -1.9 -2z"/>
  <path d="M22.4 113.8 c-0.6 -2 -0.8 -2 -1.9 -0.5 -0.7 0.9 -2 1.7 -3 1.7 -1.7 0 -1.7 -0.1 0 -2 1.8 -1.9 1.7 -2 -0.3 -2 -1.9 0 -2.2 -0.6 -2.2 -3.9 0 -2.2 -0.6 -4.2 -1.2 -4.5 -0.7 -0.3 0.2 -0.3 2.1 0 1.8 0.3 4.1 0.7 5 0.9 1.1 0.2 1.5 1.1 1.4 3 -0.2 2.1 0.1 2.5 1.5 2 3 -1.2 3.7 -1 3.6 0.8 -0.1 1 0.5 1.7 1.7 1.7 1.1 0 1.9 0.7 1.9 1.5 0 0.9 -0.9 1.5 -2.5 1.5 -1.4 0 -2.5 0.5 -2.5 1 0 1.9 -2.9 1 -3.6 -1.2z"/>
  <path d="M195.5 111 c0.3 -0.5 0.1 -1 -0.4 -1 -0.6 0 -1.1 -0.5 -1.1 -1.1 0 -0.5 0.5 -0.7 1.1 -0.3 0.6 0.3 1 -0.1 0.9 -1.2 -0.4 -3.1 -0.1 -4.4 0.9 -4.4 0.6 0 1.1 1.3 1.3 3 0.2 2.4 0.6 2.7 1.8 1.9 1.1 -0.8 1.2 -1.2 0.3 -1.6 -2.2 -0.8 -1.4 -2.3 1.2 -2.3 1.5 0 2.5 0.6 2.5 1.4 0 3 -1.3 4.6 -3.7 4.6 -1.3 0 -2.1 0.4 -1.8 1 0.3 0.6 -0.3 1 -1.5 1 -1.2 0 -1.8 -0.4 -1.5 -1z"/>
  <path d="M136.7 95.5 c-1.7 -3.5 -2.7 -7.1 -2.7 -9.8 0.1 -3.8 0.2 -4 1.3 -2 0.7 1.2 1.6 2.2 2 2.2 0.5 0 2.2 1.7 3.8 3.7 2.3 2.9 2.9 4.6 2.7 7.6 -0.3 3.1 -0.7 3.8 -2.3 3.8 -1.5 0 -2.8 -1.5 -4.8 -5.5z"/>
  <path d="M189.5 90.1 c0.4 -1.9 0.2 -3.2 -0.7 -3.8 -0.8 -0.5 0.2 -1 3.2 -1.3 3.4 -0.4 4.6 -1 4.8 -2.4 0.4 -1.7 -0.1 -1.8 -4.2 -1.2 -3.9 0.6 -4.5 0.5 -4 -0.8 0.4 -0.9 0.1 -1.6 -0.6 -1.6 -0.9 0 -1.1 -1.1 -0.7 -3.6 0.5 -3 0.4 -3.4 -0.8 -2.4 -1.8 1.5 -3.5 0.5 -3.5 -2.1 0 -2.5 -3 -2.5 -3.7 0 -0.2 1 -1.6 2.4 -2.9 3 -3.4 1.5 -4.4 1.4 -3.8 -0.4 0.4 -0.8 0.1 -1.5 -0.5 -1.5 -1.8 0 -1.3 -4 1 -7.1 1.1 -1.6 2.5 -2.6 3.1 -2.3 1.6 1 12.3 0.5 12.6 -0.6 0.6 -1.7 2.2 -1.1 2.2 0.9 0 1.4 0.6 1.7 2.5 1.3 2 -0.3 2.5 0 2.5 1.7 0 1.2 -1 3.5 -2.2 5.2 l-2.2 2.9 3.9 3.3 c2.2 1.7 4.3 3.1 4.7 3 0.4 -0.2 1 0.7 1.3 1.8 0.9 2.8 -2 6.9 -4.9 6.9 -1.2 0 -3.1 0.9 -4.1 2 -2.6 2.8 -3.8 2.5 -3 -0.9z"/>
  <path d="M23 86 c0 -4.8 0.1 -5 4 -7 2.2 -1.1 4 -1.6 4.1 -1 0.4 4.4 0.1 6.2 -1.6 7.4 -1.5 1.1 -1.7 1.7 -0.7 2.8 1.5 1.9 0.6 2.8 -3 2.8 -2.7 0 -2.8 -0.2 -2.8 -5z"/>
  <path d="M82.7 86.1 c0.3 -1.1 -0.2 -2.1 -1.1 -2.4 -2.4 -0.9 -1.9 -4 0.9 -6.7 1.4 -1.3 2.5 -3.1 2.5 -4.1 0 -2.4 2.9 -5.1 4.9 -4.7 0.9 0.2 2.1 -0.5 2.8 -1.7 1.1 -1.8 1.2 -1.6 1.3 2.2 0 4.7 -3.7 13.3 -5.7 13.3 -0.8 0 -1.3 1.2 -1.3 3 0 2.5 -0.4 3 -2.4 3 -1.9 0 -2.3 -0.4 -1.9 -1.9z"/>
  <path d="M29.3 74 c-3.9 -1.6 -2.9 -4 1.7 -4 3.6 0 4 0.3 4 2.5 0 2.7 -1.7 3.1 -5.7 1.5z"/>
  <path d="M32 65.2 c0 -2.5 3.7 -2.6 4.3 -0.1 0.4 1.5 0 1.9 -1.9 1.9 -1.6 0 -2.4 -0.6 -2.4 -1.8z"/>
  <path d="M170 58.8 c-0.1 -3.1 -0.2 -3.2 -1.5 -1.4 -1.8 2.4 -4.5 1.4 -4.5 -1.8 0 -1.6 0.7 -2.7 2 -3.1 2.7 -0.8 2.7 -3.9 0.1 -3.2 -2.8 0.7 -3.6 -2.2 -1.1 -4 1.1 -0.8 2 -2 2 -2.8 0 -0.7 1.4 -1.6 3.1 -2 1.9 -0.4 2.9 -1.2 2.5 -2 -0.7 -2 3.1 -2.5 4.8 -0.6 1 1.1 1.6 3.6 1.6 6.4 0 2.5 0.5 4.9 1 5.2 0.6 0.3 1 0.1 1 -0.5 0 -0.6 0.5 -0.8 1 -0.5 1.6 1 1.2 3.5 -0.5 3.5 -0.9 0 -1.9 0.8 -2.2 1.8 -0.9 2.2 -2.9 4.2 -4.2 4.2 -0.6 0 -2 0.9 -3.1 2 l-2 2 0 -3.2z m5 -4.8 c0 -0.5 -0.9 -1 -2 -1 -1.1 0 -2 0.5 -2 1 0 0.6 0.9 1 2 1 1.1 0 2 -0.4 2 -1z"/>
  <path d="M45 52.1 c0 -3.7 0.1 -3.9 3.8 -4.4 2.6 -0.3 4.1 0 4.9 1.1 1.5 1.8 0.8 3.2 -1.6 3.2 -1 0 -2.1 0.9 -2.4 2 -0.3 1.2 -1.4 2 -2.6 2 -1.8 0 -2.1 -0.6 -2.1 -3.9z"/>
  <path d="M36 52.1 c0 -0.5 0.6 -1.2 1.3 -1.4 0.8 -0.4 0.9 -0.8 0.1 -1.4 -0.6 -0.4 -1.3 -1.8 -1.6 -3 -0.7 -2.6 0.8 -2.9 3.6 -0.8 1.7 1.3 2.1 1.2 3.3 -0.3 1.2 -1.5 1.3 -1.1 1.1 2.8 -0.3 4.4 -0.4 4.5 -4 4.8 -2.1 0.2 -3.8 -0.1 -3.8 -0.7z"/>
  <path d="M150 45.8 c0 -0.6 -0.3 -0.8 -0.6 -0.5 -1.2 1.2 -4.4 -1.3 -4.4 -3.4 0 -1.1 -0.5 -2.9 -1 -4 -1.1 -2 0.3 -2.8 1.5 -0.9 0.3 0.6 1.5 1 2.6 1 1.2 0 1.7 -0.4 1.4 -1.1 -0.4 -0.6 0.1 -1.7 1.1 -2.4 1.2 -0.9 1.4 -1.4 0.6 -1.5 -2.4 0 -0.1 -2 2.4 -2 1.9 0 2.4 0.5 2.5 2.8 0.2 2.3 0.2 2.4 0.6 0.5 0.3 -1.6 1.1 -2.3 2.8 -2.3 1.2 0 2.6 -0.8 2.9 -1.7 0.6 -1.5 0.8 -1.5 2.4 0.1 1.6 1.6 1.5 1.9 -1.5 4.6 -1.8 1.6 -3.3 4 -3.5 5.7 -0.2 2.2 -0.9 2.9 -3.1 3.1 -2 0.2 -2.7 0.8 -2.3 1.8 0.4 1 -0.2 1.4 -1.9 1.4 -1.4 0 -2.5 -0.5 -2.5 -1.2z"/>
  <path d="M59 40.6 c0 -2.9 -0.3 -3.3 -2 -2.9 -1.4 0.4 -2 0 -2 -1.1 0 -0.9 -0.7 -1.6 -1.5 -1.6 -1.7 0 -2 -1.6 -0.5 -2.5 1.5 -0.9 6 0.6 6 2.1 0 0.8 0.5 1.4 1 1.4 0.6 0 1 -1.1 1 -2.4 0 -4.4 6.6 -4.1 9 0.4 0.8 1.5 0.6 2.4 -1 4 -1.1 1.1 -2.9 2 -4 2 -1.3 0 -2 0.7 -2 2 0 1.3 -0.7 2 -2 2 -1.6 0 -2 -0.7 -2 -3.4z"/>
  <path d="M82.3 33.7 c-1.2 -0.5 -2.4 -1.7 -2.6 -2.6 -0.4 -1.5 -0.5 -1.5 -0.6 0 -0.1 1.1 -1.2 1.8 -3.1 2.1 -2.9 0.4 -3 0.3 -3 -3.3 0 -4.3 2 -6.7 6.1 -7.6 2.7 -0.5 4.1 -2.3 1.9 -2.3 -0.5 0 -1 -0.7 -1 -1.5 0 -2 1.6 -1.9 2.4 0.1 0.4 1 1.4 1.4 2.5 1.1 1 -0.2 2.5 -0.1 3.2 0.4 1.2 0.7 1.2 1.2 0.1 2.9 -0.7 1.1 -1 2.5 -0.7 3 0.4 0.6 -0.1 1 -0.9 1 -0.9 0 -1.6 0.5 -1.6 1 0 0.6 0.7 1 1.6 1 1.3 0 1.4 0.3 0.5 1.3 -0.6 0.8 -0.9 1.6 -0.6 1.9 1.3 1.3 -2.1 2.5 -4.2 1.5z"/>
  <path d="M139.3 33.4 c-0.4 -1.1 -1.4 -1.4 -3.4 -1 -1.7 0.3 -3.2 0 -3.9 -0.9 -1.7 -2.1 -0.3 -3.5 3.6 -3.5 4 0 4.4 -1.1 0.9 -3 -2.7 -1.5 -3.4 -4 -1 -4 0.8 0 1.5 -0.7 1.5 -1.5 0 -1 1 -1.5 3.1 -1.5 2.8 0 3 0.3 2.5 2.3 -0.4 1.8 0.1 2.7 2.5 4.1 l3.1 1.8 -3.1 3.2 c-1.7 1.8 -2.9 3.5 -2.6 3.8 0.3 0.3 -0.1 0.8 -1 1.2 -0.9 0.3 -1.8 -0.1 -2.2 -1z"/>
  <path d="M102 21.1 c0 -3.3 0.3 -3.9 2.5 -4.3 2.7 -0.6 2.9 0 1.9 5.1 -0.5 2.1 -1.2 3.1 -2.5 3.1 -1.5 0 -1.9 -0.8 -1.9 -3.9z"/>
 </g>
 <g fill="#e5eaf0">
  <path d="M122.2 207.8 c-1.3 -1.6 -3.3 -9 -2.6 -9.7 0.2 -0.3 1.1 -0.6 1.8 -0.7 0.7 -0.1 2.7 -0.5 4.3 -0.8 2.8 -0.6 3.1 -0.4 3.7 2.5 1 5.3 0.7 8.6 -1 9.3 -2.5 1 -5.1 0.7 -6.2 -0.6z"/>
  <path d="M136 201.4 c-2.6 -6.1 -2.5 -7.1 0.9 -7.9 1.8 -0.4 3.2 -1.5 3.6 -2.8 0.7 -2.1 0.7 -2.1 1.2 -0.2 0.3 1.1 1.4 3.1 2.4 4.4 2.9 3.6 2.4 6.8 -1.3 9.1 -1.8 1.1 -3.7 2 -4.1 2 -0.4 0 -1.7 -2.1 -2.7 -4.6z"/>
  <path d="M52 191.8 c0 -3 3.4 -7.8 5.6 -7.8 1.8 0 2.1 0.6 2 4.5 -0.1 2.9 -0.5 4.5 -1.3 4.5 -0.7 0 -1.3 -0.7 -1.3 -1.5 0 -2 -2 -1.9 -3.6 0.3 -1.2 1.5 -1.3 1.6 -1.4 0z"/>
  <path d="M154.5 184.9 c0.4 -1.1 0.2 -1.9 -0.5 -1.9 -0.6 0 -0.8 -0.5 -0.5 -1.1 0.4 -0.5 1.7 -0.9 2.8 -0.7 1.2 0.1 2.7 -0.1 3.4 -0.5 0.9 -0.6 1.2 0.1 1 2.3 -0.1 1.6 -0.4 3 -0.7 3.1 -6 0.8 -6.1 0.8 -5.5 -1.2z"/>
  <path d="M45 181 c0 -1.1 -0.4 -2 -1 -2 -1.7 0 -1.1 -3.6 1 -5.5 2 -1.8 2.1 -1.8 5 1 4.4 4.2 3.7 6.5 -2.2 7.9 -2.4 0.5 -2.8 0.3 -2.8 -1.4z"/>
  <path d="M174.5 174.3 c-1.4 -2.1 -1.4 -2.3 0.2 -2.3 2.1 0.1 5.3 2.3 5.3 3.6 0 1.9 -4.1 0.9 -5.5 -1.3z"/>
  <path d="M32.1 172.1 c-2.6 -3.7 -2.6 -4.6 0.1 -6.5 2.8 -2 5.9 -2.1 5.2 -0.3 -0.3 0.8 0.2 2 1.1 2.7 2.1 1.7 1.9 3 -0.5 3 -1.3 0 -2 0.7 -2 2 0 2.8 -1.5 2.5 -3.9 -0.9z"/>
  <path d="M33.5 157.1 c-1.1 -0.5 -2.6 -0.6 -3.2 -0.4 -2.5 0.9 -1.3 -2.4 1.3 -3.8 2.3 -1.2 2.7 -1.2 4 0.6 1.5 2 1.9 4.5 0.7 4.4 -0.5 0 -1.7 -0.4 -2.8 -0.8z"/>
  <path d="M22 145.1 c0 -1 0.7 -2.4 1.5 -3.1 1.8 -1.5 2 -3.5 0.3 -2.4 -0.7 0.4 -0.8 0.3 -0.4 -0.4 0.4 -0.7 2.1 -1.2 3.8 -1.2 2.6 0 2.8 0.2 1.8 1.5 -1.4 1.6 -0.6 3.5 1.6 3.5 2.8 0 1.3 1.9 -2.3 2.9 -5.3 1.5 -6.3 1.4 -6.3 -0.8z"/>
  <path d="M160 138.3 c0.1 -4.6 0.1 -4.7 1.5 -2.3 0.7 1.4 1.7 2.4 2.2 2.2 0.4 -0.1 0.8 0.9 0.8 2.3 0.1 2 -0.4 2.5 -2.2 2.5 -2.1 0 -2.3 -0.5 -2.3 -4.7z"/>
  <path d="M154.6 131.4 c-0.3 -0.9 -0.6 -3.4 -0.6 -5.7 0.1 -3.8 0.2 -4 1.3 -2 0.7 1.2 1.7 2.2 2.2 2.2 0.6 0 1.3 1.6 1.6 3.6 0.5 3.1 0.4 3.5 -1.7 3.5 -1.2 0 -2.5 -0.7 -2.8 -1.6z"/>
  <path d="M25.8 131.3 c-2.2 -0.5 -2.3 -1.9 -0.2 -2.7 2.5 -0.9 3.4 -0.7 3.4 0.8 0 1.8 -1 2.4 -3.2 1.9z"/>
  <path d="M61.7 127 c0.3 -1.1 0 -2 -0.6 -2 -0.6 0 -1.1 -0.7 -1.1 -1.5 0 -0.9 0.9 -1.5 2.1 -1.5 1.2 0 2.8 -0.8 3.5 -1.7 1.2 -1.6 1.3 -1.4 1.4 1.9 0 5.1 -0.9 6.8 -3.5 6.8 -1.8 0 -2.2 -0.4 -1.8 -2z"/>
  <path d="M199.3 108.6 c0.9 -0.7 1.7 -1.9 1.7 -2.7 0 -1.1 0.2 -1.1 1 0.1 1.7 2.6 1.1 4 -1.7 4 -2.5 -0.1 -2.6 -0.2 -1 -1.4z"/>
  <path d="M83.7 84 c0.4 -1.4 0 -2 -1.2 -2 -2.5 0 -1.2 -2.4 1.5 -2.8 1.3 -0.2 3 -1.1 3.7 -2 1.1 -1.5 1.2 -1.2 1.3 2 0 5.1 -0.9 6.8 -3.5 6.8 -1.8 0 -2.2 -0.4 -1.8 -2z"/>
  <path d="M188.9 84.8 c-0.1 -0.2 -0.3 -2.4 -0.4 -5.1 -0.3 -5.4 1 -6.9 3.2 -3.7 0.8 1.2 2.1 1.9 2.9 1.6 1.1 -0.4 1.4 0.4 1.4 3.4 0 3.9 -0.1 4 -3.5 4 -1.9 0 -3.6 -0.1 -3.6 -0.2z"/>
  <path d="M171.1 76.6 c-0.9 -1 -0.8 -1.5 0.5 -2 0.9 -0.4 1.4 -1.3 1 -2.1 -0.3 -0.8 -0.1 -1.5 0.4 -1.5 0.6 0 1 -0.7 1 -1.5 0 -1.7 1.8 -1.9 3.9 -0.6 0.8 0.5 1.2 1.8 0.8 3.1 -0.3 1.3 0 2.3 0.9 2.7 2.5 0.9 1.5 2.5 -1.3 2 -1.5 -0.3 -3.5 -0.1 -4.4 0.4 -1.1 0.6 -2.1 0.4 -2.8 -0.5z"/>
  <path d="M185 73 c0 -0.6 0.7 -1.3 1.5 -1.7 2.4 -0.9 2.7 0.1 0.5 1.5 -1.3 0.8 -2 0.8 -2 0.2z"/>
  <path d="M31 66.5 c0 -3 0.3 -3.4 2.1 -3.2 1.9 0.3 4.8 3.8 4.9 6 0 0.4 -1.6 0.7 -3.5 0.7 -3.3 0 -3.5 -0.2 -3.5 -3.5z"/>
  <path d="M169 60.6 c0 -0.8 -1 -1.6 -2.2 -1.8 -3 -0.4 -3.3 -2.3 -0.9 -4.7 1.2 -1.2 2.1 -2.5 2.1 -3.1 0 -0.5 0.9 -1 2 -1 1.5 0 2 0.7 2.1 2.8 0.2 2.3 0.2 2.4 0.6 0.5 0.4 -1.9 1.1 -2.3 4.1 -2.2 2 0 3.2 0.3 2.5 0.5 -0.7 0.3 -0.9 1.2 -0.6 2 0.7 1.9 -1.5 4.4 -3.8 4.4 -1 0 -2.4 0.9 -3.1 2 -1.5 2.3 -2.8 2.6 -2.8 0.6z"/>
  <path d="M41.3 54.3 c-2.5 -0.3 -3.3 -0.9 -3.3 -2.4 0 -1 0.4 -1.9 1 -1.9 0.5 0 1.6 -1.3 2.5 -2.9 2.1 -4.1 4.8 -4.7 8.5 -2 3.8 2.8 4 5.9 0.5 5.9 -2.7 0 -3.2 0.9 -1.3 2.8 1.3 1.3 -0.7 1.4 -7.9 0.5z"/>
  <path d="M56.2 41 c-1.9 -3.1 -1.5 -7.1 0.8 -7.7 1.1 -0.3 2 -0.9 2 -1.4 0 -2.3 4.7 -0.6 6.8 2.4 3.1 4.7 2.9 6.1 -0.9 5.3 -2.4 -0.5 -3 -0.3 -2.6 0.8 0.6 1.4 -1.2 2.6 -3.6 2.6 -0.7 0 -1.8 -0.9 -2.5 -2z"/>
  <path d="M155.3 41.9 c-3.8 -1.4 -2.9 -3.9 1.3 -3.9 3.3 0 3.5 0.2 2.3 1.7 -0.8 0.9 -1.2 1.8 -1.1 2 0.7 1 -0.4 1 -2.5 0.2z"/>
  <path d="M138.6 32.4 c-0.4 -1.2 -1.4 -1.4 -3.6 -0.9 -3.9 0.9 -4.7 -1.1 -2.5 -5.9 1.6 -3.4 3.5 -4.8 3.5 -2.6 0 0.6 1.1 1 2.5 1 2.3 0 2.5 0.3 2.5 5 0 4.9 -1.2 6.6 -2.4 3.4z"/>
  <path d="M99.3 24.3 c-1.8 -0.3 -2.3 -1.1 -2.3 -3.6 0 -3.1 0.2 -3.2 4.4 -3.4 l4.3 -0.1 0 3.9 c0 4.1 -0.4 4.4 -6.4 3.2z"/>
 </g>
 <g fill="#ccd5e2">
  <path d="M20 90.2 c-1.7 -1.3 -2.1 -2.4 -1.6 -4 0.4 -1.2 1.1 -2.2 1.6 -2.2 0.5 0 0.7 -0.7 0.4 -1.5 -0.5 -1.1 0.1 -1.5 1.9 -1.5 1.4 0 3.2 0.3 4.1 0.6 1.8 0.7 2.1 3.9 0.5 5 -0.8 0.5 -0.7 0.9 0.1 1.4 2 1.2 0.3 4 -2.4 4 -1.3 0 -3.4 -0.8 -4.6 -1.8z"/>
  <path d="M190.2 87.4 c-2.3 -1.6 -3 -5.8 -1.2 -6.9 0.6 -0.4 1.7 -0.1 2.5 0.5 1.2 1 1.5 0.9 1.5 -0.8 0 -2.9 2.5 -3.4 4.9 -0.8 2.3 2.4 2.8 7.4 0.9 8 -4.4 1.4 -6.7 1.4 -8.6 0z"/>
  <path d="M37.6 75.4 c-0.5 -2 -1 -2.3 -2 -1.5 -1.1 0.9 -1.8 0.7 -3.2 -0.6 -1.2 -1.3 -1.9 -1.4 -2.2 -0.5 -0.7 2.3 -4.2 -0.7 -4.2 -3.7 0 -5 6.6 -8.5 7.7 -4 0.4 1.2 1.1 1.8 2 1.5 0.9 -0.4 1.6 0.4 2 2.5 0.5 2.8 0.7 2.9 2.4 1.3 1.8 -1.6 1.9 -1.6 1.9 1.4 0 6.1 -3.1 8.7 -4.4 3.6z"/>
  <path d="M166 60 c-2.2 -2.2 -2.6 -4 -0.9 -4 1.4 0 3.4 -2.1 3.5 -3.7 0.2 -3.1 0.5 -3.4 2.5 -2.8 1.5 0.5 1.9 0.4 1.4 -0.5 -0.5 -0.8 -0.1 -1.1 1.1 -0.8 1.1 0.2 1.8 1 1.7 1.6 -0.2 0.7 0.2 1.2 0.7 1.2 0.5 0 1 -0.7 1 -1.5 0 -0.8 0.4 -1.5 1 -1.5 1.2 0 1 7.1 -0.3 8.8 -0.5 0.6 -2 1.2 -3.3 1.2 -1.4 0 -2.5 0.8 -2.9 2 -0.3 1.1 -1.3 2 -2.1 2 -0.8 0 -2.3 -0.9 -3.4 -2z"/>
  <path d="M138.7 32.3 c-0.4 -0.3 -0.7 -1.8 -0.8 -3.2 l0 -2.6 -1.6 2.3 c-1.8 2.5 -5.3 3 -5.3 0.6 0 -1.1 0.6 -1.4 2.1 -0.9 1.8 0.6 1.9 0.5 0.8 -1.4 -1.8 -2.8 -0.9 -3.3 5.2 -2.5 3 0.4 4.8 0.9 4.1 1.2 -0.8 0.2 -1 0.8 -0.4 1.5 2.1 2.6 -1.9 7.3 -4.1 5z"/>
 </g>
 <g fill="#bfcadb">
  <path d="M105.4 207.9 c-0.2 -0.4 0.2 -2.4 1 -4.5 1.7 -5.2 4.9 -5.8 6.5 -1.3 1.9 5.6 1.5 6.4 -3 6.4 -2.2 0 -4.3 -0.3 -4.5 -0.6z"/>
  <path d="M179.4 66.5 c-0.5 -1.2 0.1 -2.4 1.7 -3.6 3.6 -2.8 5.9 -2.5 5.9 0.9 0 1.9 -0.5 2.8 -1.7 2.8 -1 0.1 -2.6 0.4 -3.5 0.9 -1.2 0.5 -2 0.2 -2.4 -1z"/>
  <path d="M39.8 58.9 c-2.6 -1.5 -2.4 -7.1 0.3 -8.7 1.4 -0.9 1.9 -1 1.4 -0.2 -0.5 0.9 -0.1 1 1.4 0.5 1.5 -0.4 2.9 -0.1 4.2 1.1 2.5 2.2 2.4 4.4 -0.1 4.4 -1.3 0 -2 0.7 -2 2 0 2.2 -2.4 2.6 -5.2 0.9z"/>
  <path d="M74.7 33.3 c-0.4 -0.3 -0.7 -2.2 -0.7 -4.1 l0 -3.5 4 0.6 c3.7 0.5 4 0.3 3.5 -1.4 -0.5 -1.4 -0.1 -1.9 1.4 -1.9 2.4 0 5.1 2.6 5.1 4.9 0 4.1 -7.3 7 -8.3 3.4 -0.4 -1.4 -0.5 -1.2 -0.6 0.5 -0.1 2.1 -2.9 3.1 -4.4 1.5z"/>
 </g>
 <g fill="#a5b3ca">
  <path d="M70.3 199.8 c-2.9 -1.4 -2.9 -3 0 -6.4 3.4 -4 5.7 -2.7 5.7 3.1 0 4.9 -1.1 5.5 -5.7 3.3z"/>
  <path d="M96.5 27.9 c-0.4 -0.5 -0.9 -2.8 -1.1 -5 l-0.5 -3.9 5.3 0.1 c4.3 0.1 4.7 0.3 2.3 0.8 l-3 0.7 3.3 0.7 c2.5 0.5 3.2 1.2 3.2 3 0 1.3 -0.5 2.8 -1.2 3.5 -1.5 1.5 -7.4 1.6 -8.3 0.1z"/>
  <path d="M116.3 26.6 c-0.4 -1.2 -0.6 -2.4 -0.5 -2.8 0.1 -0.5 -0.2 -0.8 -0.8 -0.8 -1.4 0 -1.2 -2.6 0.3 -3.8 2.7 -2.2 6.5 -2.4 8.5 -0.4 1.5 1.5 1.8 2.7 1.3 5.8 -0.6 3.7 -0.8 3.9 -4.3 4 -3 0.1 -3.9 -0.3 -4.5 -2z"/>
 </g>
 <g fill="#d8b763">
  <path d="M104.4 158.3 c0.3 -2.7 1.1 -4.9 1.6 -5.1 2.2 -0.8 0.8 -2.2 -2 -2.2 -2.8 0 -3 -0.3 -3 -3.5 0 -2.4 0.5 -3.5 1.5 -3.5 1 0 1.5 -1 1.5 -3 0 -4.1 2.3 -5 12.9 -5 l9.1 0 0 4.3 c0 3.6 -0.5 4.9 -3 7 -1.6 1.5 -3.7 2.7 -4.5 2.7 -1.8 0 -2 2.4 -0.2 3.8 0.6 0.5 2.3 1.2 3.7 1.4 2.1 0.2 2.6 0.9 2.8 4.1 l0.3 3.7 -10.7 0 -10.7 0 0.7 -4.7z"/>
  <path d="M94.3 141.3 c-0.7 -0.2 -1.3 -1.6 -1.3 -2.9 0 -2 -0.5 -2.4 -3.1 -2.4 -1.8 0 -4.7 -0.9 -6.5 -2.1 -2.8 -1.7 -3.4 -2.7 -3.4 -5.5 0 -2.3 0.5 -3.4 1.5 -3.4 2.3 0 0.6 -3 -4.3 -7.6 -4 -3.8 -4.3 -4.5 -4 -8.5 0.3 -3.8 0.6 -4.4 2.8 -4.8 4.7 -0.6 20 3.9 20 5.9 0 0.6 1 1 2.3 1 3.7 0 4.7 1.9 4.7 9.1 0 4.9 -0.4 6.8 -1.5 7.2 -1.2 0.5 -1.2 1 0 3.4 0.8 1.5 1.5 4.7 1.5 7.1 l0 4.2 -3.7 -0.1 c-2.1 0 -4.4 -0.3 -5 -0.6z"/>
  <path d="M128.2 132 c-1.2 -0.5 -2.5 -1.6 -2.8 -2.5 -0.4 -1 -1.9 -1.5 -4.5 -1.5 -3.8 0 -3.9 -0.1 -3.9 -3.8 0 -2.1 0.5 -4.3 1.2 -5 1.5 -1.5 8.4 -1.6 9.3 -0.2 1 1.7 2.5 1.1 2.5 -1 0 -1.6 0.7 -2 3.4 -2 3 0 3.4 0.4 4 3.1 0.8 4 0.8 10.3 0 12.3 -0.7 1.8 -5.4 2.1 -9.2 0.6z"/>
 </g>
 <g fill="#dcb552">
  <path d="M105 141.5 c0 -1.1 -1.1 -1.5 -3.9 -1.5 -2.2 0 -4.3 -0.5 -4.7 -1.1 -0.4 -0.8 0 -0.9 1.5 -0.4 2.3 0.7 2.6 -0.1 1.1 -4 -1.1 -2.9 -3 -2.5 -3 0.6 0 1.4 -0.7 1.9 -2.5 1.9 -3.2 0 -4.5 -2.8 -2.2 -4.5 1 -0.7 1.7 -2.6 1.7 -4.5 0 -2.5 0.3 -3.1 1.6 -2.6 0.9 0.3 2.5 -0.1 3.7 -0.9 1.2 -0.8 1.6 -1.5 0.9 -1.5 -0.7 0 -1 -0.5 -0.6 -1.1 0.4 -0.7 2.2 -0.9 4.8 -0.5 8.7 1.3 17.6 0.2 17.6 -2.3 0 -0.9 0.7 -2.5 1.5 -3.5 0.8 -1.1 1.5 -3.4 1.5 -5.1 0 -4.4 2.9 -5.8 13 -6.3 l8.5 -0.4 1.8 3.7 c1 2.1 1.7 3.8 1.5 3.9 -0.2 0.1 -2.8 1.7 -5.9 3.6 l-5.7 3.3 -0.7 7.5 c-0.9 9.3 -1.6 11 -6.5 14.5 -4.6 3.3 -8.1 3.6 -7.3 0.8 0.5 -1.8 0 -1.9 -6.8 -1.6 -5.2 0.2 -7.6 0.8 -8.5 1.9 -1.4 2 -2.4 2 -2.4 0.1z m30 -16.3 c0 -2.1 -0.3 -2.2 -3.5 -1.6 -2.5 0.4 -4.3 0.1 -6.1 -1.1 -2 -1.3 -2.8 -1.4 -4 -0.4 -2.4 2 -1.5 3.1 2.2 2.7 2.7 -0.3 3.8 0 4.5 1.4 1.3 2.4 5.1 3.9 6.1 2.4 0.4 -0.6 0.8 -2.1 0.8 -3.4z"/>
 </g>
 <g fill="#c6aa67">
  <path d="M103.1 155 c-1.9 -8.7 -1.6 -10 2.2 -10 1.7 0 3.7 0.4 4.3 0.8 1.4 0.9 2.6 5.4 1.2 4.5 -0.8 -0.4 -0.9 0.8 -0.5 3.6 0.5 3.7 0.3 4 -1 2.9 -1.4 -1.1 -1.5 -1 -0.9 1 0.6 1.9 0.4 2.2 -1.7 2.2 -2.2 0 -2.7 -0.6 -3.6 -5z"/>
  <path d="M71.7 110.8 c-0.8 -2.9 2 -8.1 3.9 -7.4 0.9 0.3 2.2 0.6 3 0.6 0.8 0 1.4 0.9 1.4 2 0 1.3 -0.5 1.8 -1.5 1.4 -0.9 -0.4 -1.8 0.1 -2.2 1.2 -0.4 1 -0.2 1.9 0.5 2.2 2.3 0.7 1.2 2.2 -1.7 2.2 -2.1 0 -3 -0.6 -3.4 -2.2z"/>
  <path d="M125.7 109.3 c-0.4 -0.3 -0.7 -2.4 -0.7 -4.5 l0 -3.8 7.5 0 7.5 0 0 3 c0 2.7 -0.3 3 -2.9 3 -1.7 0 -3.3 0.5 -3.6 1.1 -0.4 0.6 -1.3 0.8 -2.1 0.5 -0.7 -0.3 -1.6 -0.1 -1.9 0.4 -0.7 1.1 -2.9 1.3 -3.8 0.3z"/>
 </g>
 <g fill="#cfac56">
  <path d="M108.8 153.4 c-0.5 -0.4 -0.8 -2.7 -0.8 -5.1 0 -3.9 -0.2 -4.3 -2.4 -4.3 -1.4 0 -2.8 -0.4 -3.1 -1 -0.3 -0.5 -1.7 -1 -3.1 -1 -1.3 0 -2.4 -0.4 -2.4 -0.9 0 -0.6 -2.4 -1.1 -5.2 -1.3 l-5.3 -0.3 -0.3 -3.7 c-0.3 -3.6 -0.3 -3.7 3 -3.4 4.7 0.4 6.8 1.5 6.8 3.6 0 2.5 3 3.4 4.5 1.4 0.9 -1.2 1.9 -1.5 4.4 -0.9 3 0.6 3.3 1 2.7 3.5 -0.7 4 3.2 7.8 7.4 7.2 1.6 -0.2 3 -0.8 3 -1.3 0 -0.5 0.5 -0.9 1 -0.9 1.4 0 1.2 6.4 -0.2 7.8 -1.6 1.6 -4.8 1.5 -4.8 -0.2 0 -0.7 -0.9 -1.6 -1.9 -1.9 -1.4 -0.3 -2.1 0.1 -2.3 1.5 -0.2 1.1 -0.6 1.6 -1 1.2z"/>
  <path d="M92 115.1 c-0.7 -1.4 -0.6 -2.1 0.3 -2.5 0.7 -0.3 0.2 -0.8 -1.1 -1.2 -2.9 -0.8 -1.1 -2.4 3 -2.4 4.4 0 5.8 1 5.8 4.2 0 2.7 -0.2 2.9 -1.6 1.7 -1.3 -1.1 -1.7 -1 -2.5 0.4 -1.3 2.2 -2.6 2.2 -3.9 -0.2z"/>
  <path d="M127 109 c0 -0.5 -0.7 -1 -1.5 -1 -1 0 -1.5 -1.1 -1.5 -3.5 0 -3.3 0.2 -3.5 3.5 -3.5 1.9 0 3.5 0.3 3.5 0.8 0 0.4 2.8 0.7 6.3 0.7 5.7 0 6.2 0.2 6.5 2.3 0.3 2 0 2.2 -4.7 2.2 -2.7 0 -5.3 0.5 -5.6 1.1 -0.4 0.6 -1.3 0.8 -2.1 0.5 -0.7 -0.3 -1.6 -0.1 -1.9 0.4 -0.8 1.3 -2.5 1.3 -2.5 0z m9.4 -4 c0.7 -0.7 -0.6 -1 -3.7 -1 -4.4 0 -5.6 0.7 -4 2.4 1 0.9 6.4 -0.1 7.7 -1.4z"/>
 </g>
 <g fill="#8195b7">
  <path d="M134.2 27.4 c-1.8 -2 -0.5 -6.4 1.9 -6.4 1.1 0 2.7 0.4 3.7 0.9 0.9 0.5 2.5 1.2 3.5 1.5 2.2 0.7 2.2 2.6 0.1 2.6 -1.4 0 -1.4 0.3 -0.4 1.5 1.4 1.7 0 2 -3.5 0.6 -1.1 -0.5 -2.4 -0.5 -3 -0.1 -0.5 0.5 -1.6 0.2 -2.3 -0.6z"/>
 </g>
 <g fill="#daac3a">
  <path d="M113 132.9 c0 -4.5 7.6 -9 9.6 -5.8 0.8 1.4 -1.4 2.9 -4.3 2.9 -1.2 0 -2.9 1 -3.7 2.2 -1.2 1.7 -1.6 1.8 -1.6 0.7z"/>
  <path d="M113 124.5 c0.7 -0.8 2.7 -1.5 4.4 -1.4 l3.1 0.1 -3.5 1.3 c-4.7 1.8 -5.5 1.8 -4 0z"/>
 </g>
 <g fill="#b19c6d">
  <path d="M122.3 118.3 c-1.8 -0.3 -2.3 -1.1 -2.3 -3.6 0 -4.1 2.9 -6.7 7.3 -6.7 3 0.1 3.1 0.2 1.3 1.5 -1.2 0.9 -1.7 2.1 -1.3 3.6 0.5 2 -1.1 6.1 -2.3 5.8 -0.3 -0.1 -1.5 -0.4 -2.7 -0.6z"/>
  <path d="M70.7 111.4 c-0.3 -0.3 0.4 -2.4 1.5 -4.5 1.5 -2.9 2.6 -3.9 4.4 -3.9 1.7 0 2.4 0.6 2.4 2 0 1.3 -0.7 2 -2 2 -2.5 0 -2.6 2.5 -0.2 3.9 1.4 0.9 1 1 -1.9 1.1 -2 0 -3.8 -0.3 -4.2 -0.6z"/>
 </g>
 <g fill="#5a72a0">
  <path d="M170 42 c-0.9 -1.7 -0.8 -2 0.9 -2 1.9 0 3.5 2.3 2.4 3.4 -1.1 1.1 -2.2 0.6 -3.3 -1.4z"/>
  <path d="M151.5 39.5 c-3.1 -3 -3.2 -4.5 -0.2 -4.5 2 -0.1 2 -0.2 0.6 -1.3 -1.4 -1 -1.5 -1.6 -0.4 -3 1.5 -2.1 5.4 -2.2 6.1 -0.2 0.4 0.8 1.3 1.5 2.1 1.5 2.1 0 0.7 6 -1.9 8.3 -2.7 2.3 -3.4 2.2 -6.3 -0.8z"/>
  <path d="M173.1 39.2 c-0.8 -1.4 -0.5 -2.3 1 -3.5 2.3 -2.1 3.3 -2.2 2.6 -0.3 -0.3 0.7 -0.1 1.8 0.5 2.4 0.6 0.6 0.7 1.5 0.4 2.1 -1.1 1.7 -3.4 1.3 -4.5 -0.7z"/>
 </g>
 <g fill="#85795f">
 </g>
 <g fill="#4b669b">
  <path d="M167.3 62.4 c0.3 -0.3 -0.3 -1.4 -1.4 -2.5 -3.7 -3.7 -1.1 -5.4 3.6 -2.3 2 1.3 2.3 2 1.4 3.5 -0.5 1 -1.7 1.9 -2.6 1.9 -0.9 0 -1.4 -0.3 -1 -0.6z"/>
  <path d="M172 56.4 c0 -1.7 2.2 -1.4 2.8 0.4 0.2 0.7 -0.3 1.2 -1.2 1.2 -0.9 0 -1.6 -0.7 -1.6 -1.6z"/>
  <path d="M168.2 50.8 c0.5 -1.5 2.8 -1.8 2.9 -0.3 0 0.6 -0.7 1.2 -1.7 1.3 -1 0.3 -1.5 -0.1 -1.2 -1z"/>
  <path d="M163.5 48.1 c-1.4 -2.3 4 -8.1 7.6 -8.1 2.4 0 3.3 3.1 1.1 3.7 -1 0.2 -2.2 1.4 -2.7 2.6 -1.1 2.4 -4.9 3.5 -6 1.8z"/>
  <path d="M171.7 48.3 c-1.1 -1 1.3 -3.3 3.4 -3.3 1.1 0 1.9 0.7 1.9 1.6 0 0.8 -0.4 1.2 -1 0.9 -0.5 -0.3 -1 -0.1 -1 0.4 0 1.2 -2.3 1.5 -3.3 0.4z"/>
  <path d="M73.7 34.3 c-0.4 -0.3 -0.7 -1.6 -0.7 -2.9 0 -1.2 -0.6 -2.4 -1.2 -2.7 -1.8 -0.6 0.2 -3.8 3 -4.8 1.6 -0.6 2.2 -0.5 2.2 0.6 0 0.8 0.7 1.5 1.5 1.5 1.6 0 3.5 3 3.5 5.4 0 0.9 -0.4 1.6 -1 1.6 -0.5 0 -1 -0.9 -1 -2 0 -1.4 -0.7 -2 -2.2 -2 -2.1 0 -2.1 0.1 -0.3 1.4 2.2 1.6 1.4 4.6 -1.3 4.6 -1 0 -2.2 -0.3 -2.5 -0.7z"/>
 </g>
 <g fill="#3a5590">
  <path d="M18 139.7 c0 -0.8 1.1 -1.7 2.5 -1.9 1.7 -0.4 2.5 -0.1 2.5 0.8 0 0.8 -0.4 1.4 -0.9 1.4 -0.5 0 -1.6 0.3 -2.5 0.6 -1 0.4 -1.6 0.1 -1.6 -0.9z"/>
  <path d="M192 114.9 c0 -0.6 1 -1.9 2.3 -3 l2.2 -1.8 -3.2 -0.1 c-2.3 0 -3.3 -0.5 -3.3 -1.5 0 -1.8 1.4 -1.9 4.1 -0.4 1.8 0.9 2 0.7 1.7 -1.7 -0.2 -1.6 0.3 -2.9 1.1 -3.2 1 -0.3 1.3 0.3 0.9 2.7 -0.5 3.4 -0.4 3.5 2.2 2.1 1.3 -0.7 1.9 -0.6 2.4 0.5 0.4 1.1 -0.2 1.5 -2.1 1.5 l-2.6 0 2.2 2.4 c1.6 1.7 1.9 2.6 1 3.1 -0.7 0.5 -1.9 -0.1 -2.9 -1.5 l-1.8 -2.3 -0.6 2.1 c-0.7 2.2 -3.6 3.1 -3.6 1.1z"/>
  <path d="M18.8 110.3 c-1 -0.2 -1.8 -0.8 -1.8 -1.3 0 -0.4 0.8 -0.6 1.8 -0.3 1.3 0.3 1.8 -0.1 1.7 -1.9 0 -1.3 0.5 -2.4 1 -2.5 0.6 -0.1 0.9 0.9 0.8 2.3 -0.2 2.1 0.2 2.4 1.8 1.9 1 -0.4 1.9 -0.2 1.9 0.3 0 0.9 -3.6 2.3 -5 2.1 -0.3 -0.1 -1.3 -0.3 -2.2 -0.6z"/>
  <path d="M25 89.8 c-0.1 -2.2 -0.1 -2.3 -1.5 -0.4 -1.5 1.9 -1.5 1.9 -1.5 -0.2 0 -1.3 0.6 -2.2 1.5 -2.2 2.3 0 1.8 -1.6 -1 -2.8 -2.6 -1.2 -3.1 -2.7 -1.5 -5.2 0.8 -1.2 1 -1.2 1.6 0.3 0.3 0.9 1 1.5 1.4 1.2 0.8 -0.5 8 2.2 8 3 0 0.2 -1.5 1.2 -3.2 2.1 l-3.3 1.7 2.5 0.9 c2.4 0.9 2.4 1 0.6 2.4 -2.7 2 -3.6 1.8 -3.6 -0.8z"/>
  <path d="M19.1 87.1 c-1 -0.6 -1 -1 -0.1 -1.6 1.3 -0.8 2.4 -0.1 1.9 1.4 -0.3 0.6 -1 0.7 -1.8 0.2z"/>
  <path d="M38.3 77.4 c-1.6 -4.2 3.2 -9.9 6.1 -7.4 1.5 1.2 1.5 1.5 -0.4 3.5 -1.1 1.2 -2 2.9 -2 3.8 0 2.2 -2.9 2.2 -3.7 0.1z"/>
  <path d="M35 72.8 c0 -2.3 1.1 -4.8 2.1 -4.8 1.4 0 1.1 2.4 -0.6 4.6 -1.2 1.6 -1.4 1.7 -1.5 0.2z"/>
  <path d="M183 71.4 c0 -2.1 0.4 -2.5 2 -2.1 1.3 0.3 2 0 2 -0.8 0 -2.1 -1.7 -2.7 -4.1 -1.5 -2.6 1.4 -4.5 0 -3.5 -2.7 0.7 -1.7 0.8 -1.7 1.7 0 1.3 2.2 2.9 1.3 2.2 -1.2 -0.3 -1.3 0.2 -2 2 -2.5 3.4 -0.8 5.7 0.2 5.7 2.4 0 1.1 0.4 2.1 0.9 2.4 0.5 0.3 1.1 1.5 1.4 2.7 0.4 1.5 0.2 1.9 -0.9 1.5 -0.7 -0.3 -2.6 0.6 -4 1.9 -3.5 3.2 -5.4 3.2 -5.4 -0.1z"/>
  <path d="M176.5 69.9 c-0.4 -0.6 -0.5 -1.3 -0.2 -1.6 0.7 -0.7 2.7 0.6 2.7 1.8 0 1.2 -1.7 1.2 -2.5 -0.2z"/>
  <path d="M168.5 51.1 c-0.8 -1.4 1 -2.2 3.2 -1.4 1.6 0.6 1.6 0.5 0.5 -0.9 -1.1 -1.4 -1 -1.8 0.8 -2.8 1.1 -0.6 3 -0.8 4 -0.5 2.1 0.7 2.7 3.9 1 5 -0.5 0.3 -1 -0.1 -1 -0.9 0 -0.8 -0.5 -1.8 -1.2 -2.2 -0.7 -0.5 -0.9 -0.2 -0.5 0.8 0.3 0.9 0 2.1 -0.6 2.7 -1.3 1.3 -5.4 1.5 -6.2 0.2z"/>
  <path d="M150 46.3 c0 -0.9 -0.3 -1.3 -0.6 -1 -1.2 1.2 -4.4 -1.4 -4.4 -3.6 0.1 -2.1 0.1 -2.1 1.5 -0.3 0.8 1.1 2.1 1.6 3 1.2 1.8 -0.6 5.9 3 5 4.4 -1 1.7 -4.5 1.1 -4.5 -0.7z"/>
  <path d="M57.6 42.3 c-1.4 -1.4 -2.6 -3.6 -2.6 -4.9 0 -2 0.5 -2.4 2.8 -2.3 1.5 0.1 2 0.3 1 0.6 -1.9 0.5 -3.1 3 -1.8 3.8 0.6 0.4 1 0.1 1 -0.4 0 -1.8 2.9 -1.2 4 0.8 2.4 4.6 -0.6 6.2 -4.4 2.4z"/>
  <path d="M152.4 40.5 c-1 -0.8 -1.4 -1.5 -0.7 -1.5 1.9 0 4.3 1.1 4.3 2.1 0 1.3 -1.4 1.1 -3.6 -0.6z"/>
  <path d="M131.7 31.3 c-1.6 -1.5 -0.7 -3.4 1.3 -2.8 2.1 0.7 2.9 -1 0.8 -1.8 -0.7 -0.2 -1 -0.8 -0.6 -1.2 1 -1 5.8 0.3 5.8 1.6 0 0.6 -0.4 0.7 -1 0.4 -0.5 -0.3 -1.5 0.5 -2.2 1.9 -1.1 2.5 -2.8 3.3 -4.1 1.9z"/>
  <path d="M95.4 22.4 c-0.9 -3.4 0.7 -4.7 6.2 -5 5.2 -0.4 5.8 1.7 0.8 2.7 -1.9 0.4 -2.2 0.7 -0.9 0.8 1.1 0.1 2.7 0.6 3.5 1.2 1.1 0.7 0.1 0.8 -3.5 0.5 -2.7 -0.3 -4.2 -0.3 -3.2 0 2.3 0.7 2.2 2.4 -0.3 2.4 -1.3 0 -2.2 -0.9 -2.6 -2.6z"/>
 </g>
 <g fill="#46526d">
  <path d="M105.4 155.6 c-0.3 -1.3 -0.4 -3.4 -0.2 -4.7 0.2 -1.6 0.6 -0.9 1.4 2.4 1 4.7 0 6.8 -1.2 2.3z"/>
  <path d="M109.6 157.2 c-0.3 -0.5 -0.8 -2.7 -1.2 -5 -0.3 -2.2 -1.3 -4.3 -2 -4.6 -1.7 -0.6 -1.8 -3.2 -0.3 -4.1 2.3 -1.5 4.5 2.8 4.5 8.8 -0.1 6 -0.2 6.2 -1 4.9z"/>
 </g>
 <g fill="#2b4889">
  <path d="M104.2 209.8 c0.3 -0.7 1.3 -3.7 2.2 -6.5 1 -3.1 2.4 -5.3 3.2 -5.3 0.8 0 2.5 2.5 3.9 5.6 2.9 6.7 2.9 6.4 1 6.4 -0.8 0 -1.5 -0.4 -1.5 -1 0 -1.6 -5.7 -1.2 -6.4 0.5 -0.3 0.8 -1 1.5 -1.7 1.5 -0.6 0 -0.9 -0.6 -0.7 -1.2z m6.8 -5.2 c0 -0.8 -0.4 -1.7 -0.9 -2 -1 -0.7 -2.3 1.9 -1.4 2.8 1.1 1.1 2.3 0.6 2.3 -0.8z"/>
  <path d="M82.7 207.3 c-1.3 -0.3 -1.7 -1.1 -1.4 -2.6 0.3 -1.2 0.9 -3.9 1.2 -5.9 0.5 -2.4 1.3 -3.8 2.2 -3.8 1.4 0 1.3 2.3 -0.3 8.3 -0.4 1.3 0.2 1.9 2.5 2.3 1.7 0.4 3.1 1 3.1 1.5 0 0.9 -4.1 1 -7.3 0.2z"/>
  <path d="M73 202.5 c0 -2.2 -3.8 -3.9 -5.6 -2.4 -3.1 2.6 -2.4 -0.2 1.1 -4.6 5.2 -6.3 6.9 -5.7 7.3 2.3 0.2 5.1 0 6.2 -1.3 6.2 -0.8 0 -1.5 -0.7 -1.5 -1.5z m1 -6.5 c0 -1.1 -0.4 -2 -1 -2 -0.5 0 -1 0.2 -1 0.4 0 0.2 -0.3 1.1 -0.6 2 -0.4 1.1 -0.1 1.6 1 1.6 0.9 0 1.6 -0.8 1.6 -2z"/>
  <path d="M47 181.1 c0 -0.6 -1.4 -1.7 -3.1 -2.3 l-3 -1.3 3.1 -3 3 -2.9 3.3 3.2 c2.6 2.6 3 3.5 2.1 5 -1.2 1.9 -5.4 2.9 -5.4 1.3z m2 -4.6 c-0.9 -1.1 -1.6 -1.3 -2.3 -0.6 -0.7 0.7 -0.6 1.5 0.3 2.6 0.9 1.1 1.6 1.3 2.3 0.6 0.7 -0.7 0.6 -1.5 -0.3 -2.6z"/>
  <path d="M179 175 c0 -0.5 0.7 -1 1.5 -1 2.1 0 1.9 -3.7 -0.2 -4.9 -3.7 -2.2 -5.5 -4 -4.8 -5 0.8 -1.4 8.2 3.6 9 6.1 0.9 2.4 -1.2 5.8 -3.5 5.8 -1.1 0 -2 -0.4 -2 -1z"/>
  <path d="M31.5 171.4 c-1.5 -1.9 -2.5 -3.6 -2.4 -3.8 0.2 -0.1 2.5 -1.8 5.2 -3.6 5.1 -3.6 5.4 -3.6 8.8 2.3 1.8 3.1 -0.1 3.3 -2.5 0.2 -1.6 -2 -2.5 -2.5 -3 -1.6 -0.5 0.7 0 2.1 1 3.2 2.5 2.8 0.8 3.7 -2 1 -3 -2.8 -4.5 -1.1 -2.2 2.4 3.2 4.9 0.9 4.9 -2.9 -0.1z"/>
  <path d="M172.2 161.9 c0.2 -0.6 0.8 -1 1.3 -1 0.5 0 1.1 0.4 1.3 1 0.2 0.6 -0.4 1.1 -1.3 1.1 -0.9 0 -1.5 -0.5 -1.3 -1.1z"/>
  <path d="M24 158 c0 -0.5 1.8 -1.9 4 -3 2.6 -1.3 4 -2.7 4 -4 0 -3.2 1.6 -2.3 3.5 2 1.8 4 1.3 7.1 -0.6 3.7 -0.9 -1.6 -1.2 -1.6 -4.9 0.3 -4.3 2.2 -6 2.5 -6 1z"/>
  <path d="M189.6 147.7 c-3.8 -1.2 -6.2 -3.7 -3.4 -3.7 2.8 0 10.2 2.7 10.6 3.8 0.5 1.5 -2.1 1.4 -7.2 -0.1z"/>
  <path d="M23.8 141.8 c1.9 -1.9 1.4 -2.6 -1.3 -2 -3.7 0.7 -3.1 -1.6 0.8 -2.6 2.7 -0.7 3.2 -0.6 3.5 1 0.5 2.9 -0.5 4.8 -2.5 4.8 -1.3 0 -1.4 -0.3 -0.5 -1.2z"/>
  <path d="M187 138.8 c0 -0.7 0.3 -3 0.6 -5 0.7 -4 2.4 -5.3 2.4 -1.8 0 1.6 0.9 2.1 5 2.6 3.1 0.4 5 1.2 5 2 0 0.9 -1.4 1.1 -5.5 0.7 -4.7 -0.5 -5.5 -0.3 -5.5 1.1 0 0.9 -0.4 1.6 -1 1.6 -0.5 0 -1 -0.6 -1 -1.2z"/>
  <path d="M16.5 115 c-0.3 -0.5 0.3 -1.5 1.5 -2.2 2.7 -1.7 2.5 -2.8 -0.5 -2.8 -1.6 0 -2.5 -0.6 -2.5 -1.5 0 -1.7 1.6 -2 2.5 -0.5 0.6 0.9 4.8 0.9 8.4 -0.1 0.7 -0.2 1.6 0.2 1.8 0.9 0.3 0.7 -0.5 1.2 -2.1 1.2 -2.9 0 -3.3 1.1 -1.1 3 1.9 1.5 1.9 3 0.2 3 -0.8 0 -1.8 -1 -2.4 -2.2 l-1 -2.3 -1.2 2.3 c-1.2 2.3 -2.6 2.8 -3.6 1.2z"/>
  <path d="M19 89.5 c-1.3 -1.6 -0.7 -4.5 1 -4.5 0.5 0 1 0.6 1 1.4 0 0.9 0.8 1.2 2.6 0.8 l2.7 -0.5 -2.2 2.2 c-2.5 2.5 -3.4 2.6 -5.1 0.6z"/>
  <path d="M170 76.7 c0 -0.7 0.9 -1.8 2 -2.5 1.7 -1 2.1 -1 2.7 0.4 0.6 1.6 -1.1 3.4 -3.4 3.4 -0.7 0 -1.3 -0.6 -1.3 -1.3z"/>
  <path d="M177.7 76.3 c-1.3 -0.3 -1.7 -1.1 -1.4 -2.4 0.3 -1.2 0 -1.9 -0.9 -1.9 -0.8 0 -1.4 -0.9 -1.4 -2.1 0 -1.5 0.5 -2 2.3 -1.7 1.7 0.2 2.2 1 2.2 3.2 0.1 1.6 0.6 3.1 1.3 3.4 0.7 0.2 1.2 0.8 1.2 1.3 0 0.9 -0.3 1 -3.3 0.2z"/>
  <path d="M31.6 73.5 c0.4 -0.8 0.2 -1.5 -0.4 -1.5 -0.6 0 -1.2 0.6 -1.5 1.3 -0.7 2.1 -3.7 -1.2 -3.7 -4.3 0 -3 2.7 -6 5.4 -6 2 0 3.1 2.3 2.1 4.8 -0.6 1.6 -0.7 1.6 -1.9 0 -1 -1.3 -1.5 -1.5 -2.4 -0.6 -1.6 1.6 -1.5 3.1 0.2 2.5 0.7 -0.3 1.8 -0.1 2.4 0.5 1.4 1.4 4.2 -0.7 4.3 -3.1 0 -1.2 0.3 -1 1.1 0.6 0.8 1.7 0.7 2.8 -0.6 4.8 -1.8 2.7 -6 3.6 -5 1z"/>
  <path d="M40 59.8 c-1.1 -1.2 -2 -2.6 -2 -3 0 -0.5 -0.4 -0.7 -0.9 -0.3 -0.5 0.3 -1.2 0.1 -1.6 -0.5 -1 -1.7 0.4 -4.8 2.6 -5.5 1 -0.4 2.6 -1.9 3.4 -3.5 2.2 -4.2 4.8 -4.6 9 -1.4 4.2 3.2 4.6 5.4 0.9 5.4 -2.3 0 -2.5 -0.3 -2 -2.4 0.7 -3 -1 -3.8 -4.5 -2 -3.4 1.7 -4.9 4.8 -1.8 3.9 1.4 -0.5 2.8 0 4.5 1.6 2.6 2.4 2.3 3.9 -0.8 3.9 -1.5 0 -1.9 -0.5 -1.5 -2 0.6 -2.3 -0.1 -2.5 -2.5 -0.6 -2.3 1.7 -2.3 2.2 0.2 2.9 2.3 0.6 2.7 4.2 0.5 5.1 -0.8 0.3 -2.4 -0.4 -3.5 -1.6z"/>
  <path d="M172 56.9 c0 -0.6 -1 -1.9 -2.2 -2.8 -2.5 -2.1 -1.9 -5.7 0.9 -4.7 0.9 0.4 2 0.1 2.4 -0.6 0.6 -1 1.1 -1 2 -0.1 0.9 0.9 0.7 1.4 -0.9 2.4 -1.9 1.2 -1.9 1.3 -0.1 3.2 1 1.2 2.2 1.7 2.6 1.3 0.4 -0.4 0.1 -1.1 -0.7 -1.6 -1.1 -0.7 -1.1 -1.1 -0.1 -2.4 0.7 -0.8 1 -2.4 0.6 -3.6 -0.4 -1.4 -0.2 -2 0.8 -2 0.8 0 1.7 1 2.1 2.2 0.5 2.2 0.6 2.2 2 0.3 1.3 -1.8 1.5 -1.8 2.1 -0.3 0.9 2.4 -0.2 3.8 -3 3.8 -1.8 0 -2.3 0.4 -1.9 1.5 0.4 0.8 0.1 2.2 -0.6 3 -1.4 1.7 -6 2 -6 0.4z"/>
  <path d="M154.3 40.1 c-1 -1.6 -0.8 -1.7 1.3 -1.3 2.6 0.5 3.1 -0.7 1.2 -2.6 -0.8 -0.8 -0.8 -1.5 0.2 -2.7 1.6 -1.9 4.6 -1.9 5.4 0 0.3 0.9 0 1.5 -0.9 1.5 -0.7 0 -1.5 1 -1.7 2.1 -0.2 1.2 -1.2 2.8 -2.3 3.5 -1.8 1.2 -2.2 1.1 -3.2 -0.5z"/>
  <path d="M64.4 37.5 c0.5 -1.8 0.2 -2.7 -0.9 -3.1 -1.5 -0.6 -2.2 -3.4 -0.7 -3.4 1 0 5.2 6.3 5.2 7.8 0 0.7 -0.9 1.2 -2.1 1.2 -1.8 0 -2 -0.4 -1.5 -2.5z"/>
  <path d="M80 31 c0 -1.1 -0.7 -2 -1.5 -2 -1.8 0 -2 -1.6 -0.4 -2.6 0.7 -0.4 1.9 0.3 2.9 1.6 1.4 1.9 2 2.1 3.9 1.1 2.5 -1.4 1.8 -3.5 -0.9 -2.6 -2.3 0.7 -3.7 -2.9 -2 -5 1.9 -2.3 4.3 -1.9 3.5 0.5 -0.4 1.1 -0.2 2 0.4 2 2 0 2.4 5 0.6 7 -2.4 2.7 -6.5 2.7 -6.5 0z"/>
  <path d="M120.7 29.4 c-0.4 -0.4 -1.6 -0.7 -2.8 -0.8 -3 -0.1 -4.9 -3.3 -2.9 -4.6 1 -0.6 1.1 -1 0.3 -1 -1.7 0 -1.7 -2.5 0 -3.8 2.8 -2.3 6.5 -2.4 8.6 -0.3 2.6 2.6 1.8 5 -0.8 2.7 -1 -0.9 -2.7 -1.6 -3.9 -1.6 -2.1 0 -2.1 0.1 -0.4 3 1.3 2.3 2.3 3 4 2.7 2.4 -0.5 2.9 1.2 1 3.1 -1.3 1.3 -2.2 1.5 -3.1 0.6z"/>
 </g>
 <g fill="#1b3c84">
  <path d="M122.2 207.8 c-1.7 -2.2 -3.3 -9.1 -2.2 -10.2 1 -1 1.4 -0.3 2.8 5.4 0.6 2.5 1.4 3.5 2.8 3.5 2.1 0 2.4 -2.6 1.1 -7.7 -0.5 -2.1 -0.4 -2.8 0.7 -2.8 2.6 0 3.6 11.4 1 12.4 -2.5 1 -5.1 0.7 -6.2 -0.6z"/>
  <path d="M136 201.4 c-2.5 -5.8 -2.5 -7 0.3 -7.8 5.8 -1.5 9.7 0.9 9.7 6.1 0 2.1 -4.9 6.3 -7.3 6.3 -0.4 0 -1.7 -2.1 -2.7 -4.6z m5.4 1 c3.2 -1.2 1.5 -7.4 -2 -7.4 -2.7 0 -2.8 0.4 -1.3 4.9 1.2 3.4 1.1 3.3 3.3 2.5z"/>
  <path d="M150.1 194.3 c-2.7 -4.3 -3.1 -6.3 -1.3 -6.3 0.7 0 6.2 9.2 6.2 10.4 0 2 -2.4 0 -4.9 -4.1z"/>
  <path d="M57.6 196.3 c-0.3 -0.3 -0.6 -2.7 -0.6 -5.2 l0 -4.6 -2.1 3.2 c-2.9 4.5 -4.5 3 -1.8 -1.5 3.1 -5.1 4.5 -6.6 5.9 -5.7 0.7 0.5 0.9 2.2 0.5 4.9 l-0.6 4.1 2.5 -3 c3.6 -4.2 4.3 -2.4 1.2 2.9 -2.8 4.8 -3.9 5.9 -5 4.9z"/>
  <path d="M160.5 189.5 c-2 -2.6 -3.2 -3.4 -4.6 -3 -1 0.4 -1.9 0.2 -1.9 -0.3 0 -1.5 6.8 -6.3 7.5 -5.3 0.3 0.5 0.1 1.2 -0.5 1.6 -1.5 1 -1.2 2.1 1.5 5.3 2.5 3 3.2 5.2 1.6 5.2 -0.5 0 -2.1 -1.6 -3.6 -3.5z"/>
  <path d="M44.9 186.3 c-0.1 -0.5 0 -2.3 0.1 -4 0.2 -3.6 -1 -4.2 -3 -1.8 -0.9 1.1 -1.6 1.3 -2.3 0.6 -0.7 -0.7 -0.3 -1.9 1.3 -3.6 2.9 -3.1 4.2 -3.2 5.5 -0.2 0.7 1.5 1.7 2.1 3.4 1.9 1.6 -0.3 2.2 0.1 1.9 1 -0.3 0.7 -1.4 1.4 -2.6 1.6 -1.6 0.2 -2.2 1 -2.2 2.8 0 2.1 -1.8 3.6 -2.1 1.7z"/>
  <path d="M175.4 174.4 c-5 -3.3 -4.7 -3.1 -3.9 -4.4 0.5 -0.7 1.8 -0.2 4.1 1.5 2.5 1.9 4.2 2.5 6 2.1 2.9 -0.8 3.2 0.9 0.5 2.4 -2.6 1.3 -2.2 1.4 -6.7 -1.6z"/>
  <path d="M183.7 161.8 c-2.6 -1.2 -4.6 -2.6 -4.4 -3.2 0.2 -0.6 2.5 -1.2 5 -1.4 5.6 -0.4 6 -1.3 1.1 -3.1 -2.1 -0.8 -3.2 -1.7 -2.7 -2.2 1.2 -1.2 11.3 3.1 11.3 4.7 0 0.7 -2 1.6 -4.7 2 l-4.8 0.7 3.3 1.5 c3.2 1.6 4.3 3.3 2 3.1 -0.7 0 -3.5 -1 -6.1 -2.1z"/>
  <path d="M44 162.5 c0 -0.2 0.5 -1.6 1.2 -3.1 1.2 -2.6 1.4 -2.6 7.8 -2 3.6 0.3 9.8 0.6 13.8 0.6 7 0 7.2 0.1 7.2 2.5 l0 2.5 -15 0 c-8.2 0 -15 -0.2 -15 -0.5z"/>
  <path d="M80 160.7 c0 -2.4 0.2 -2.4 13.7 -3 9.6 -0.5 14 -0.4 14.7 0.4 0.8 0.8 0.7 1.3 -0.1 1.6 -0.7 0.3 -1.3 1.1 -1.3 1.9 0 1.1 -2.5 1.4 -13.5 1.4 -13.5 0 -13.5 0 -13.5 -2.3z"/>
  <path d="M121.7 161.4 c0.4 -1 0 -2.2 -0.9 -2.8 -1.1 -0.8 5.4 -1 25 -0.9 24 0.2 26.6 0.4 27.8 2 0.7 1 1.4 2.1 1.4 2.6 0 0.4 -12.1 0.7 -27 0.7 -24.6 0 -26.9 -0.1 -26.3 -1.6z"/>
  <path d="M51.2 147.5 c3.8 -7.7 5.8 -8.4 5.8 -2.2 0 5.5 -2.2 8.7 -6 8.7 l-3 0 3.2 -6.5z"/>
  <path d="M20 146.9 c0 -0.7 1.2 -2.6 2.8 -4.2 2.5 -2.7 2.6 -2.9 0.9 -4.1 -1.6 -1.2 -1.4 -1.4 1.4 -2 1.7 -0.3 3.5 -0.6 4 -0.6 1.7 0 0.9 2.4 -1.8 5.3 l-2.8 3 3.8 -0.7 c5.2 -1 4.8 1 -0.5 2.4 -2.4 0.6 -5.1 1.3 -6 1.6 -1.1 0.3 -1.8 0 -1.8 -0.7z"/>
  <path d="M17 130.5 c0 -1.1 1.1 -1.5 3.8 -1.5 2 0 4.7 -0.3 6 -0.6 1.5 -0.5 2.2 -0.2 2.2 0.9 0 0.9 -1.4 1.7 -3.7 2.1 -6.1 1 -8.3 0.7 -8.3 -0.9z"/>
  <path d="M99.3 123.4 c-0.8 -0.8 -0.9 -1.5 -0.3 -1.9 1.4 -0.9 1.3 -4.8 -0.2 -6.3 -0.9 -0.9 -0.5 -1.2 1.9 -1.2 2.7 0 3.1 0.4 3.7 3.8 1 6.1 0.8 7 -1.7 7 -1.2 0 -2.8 -0.6 -3.4 -1.4z"/>
  <path d="M199 109.1 c0 -0.5 0.7 -1.2 1.6 -1.5 2.2 -0.9 2.4 -0.8 2.4 0.9 0 0.8 -0.9 1.5 -2 1.5 -1.1 0 -2 -0.4 -2 -0.9z"/>
  <path d="M74.8 106.3 c-2.2 -0.6 -2.2 -0.5 0.2 -5.3 2.9 -5.7 5.2 -5.3 4.8 0.7 -0.3 4.9 -1.2 5.7 -5 4.6z"/>
  <path d="M190.2 87.4 c-2.3 -1.6 -3 -5.8 -1.2 -6.9 0.6 -0.4 1.7 -0.1 2.5 0.5 1.2 1 1.5 0.9 1.5 -0.8 0 -3 2.5 -3.4 5 -0.7 2.9 3.1 2.5 7.9 -0.8 8.3 -1.3 0.2 -2.5 -0.3 -2.8 -1.3 -0.9 -2.3 0.3 -3 2.2 -1.4 1.6 1.3 1.7 1.2 1.1 -1.1 -0.4 -1.4 -0.7 -2.8 -0.7 -3.2 0 -1.5 -2 -0.8 -2 0.7 0 0.8 -0.9 1.5 -2 1.5 -2.4 0 -2.5 0.8 -0.4 3.8 1.8 2.6 0.8 2.9 -2.4 0.6z"/>
  <path d="M102 48 c6.9 -13.4 9 -15 9 -6.9 0 4.2 -0.3 5.2 -2 5.6 -1.3 0.4 -2 1.4 -2 3 0 1.6 -0.7 2.7 -2 3 -1.5 0.4 -2 1.4 -2 3.9 0 3.2 -0.2 3.4 -3.5 3.4 l-3.6 0 6.1 -12z"/>
  <path d="M164.6 58.4 c-0.9 -2.3 -0.8 -2.4 1.3 -2.4 1 0 2.5 0.8 3.2 1.7 1.2 1.5 1.2 1.6 -0.3 1 -1 -0.3 -1.8 -0.2 -1.8 0.3 0 1.6 -1.7 1.1 -2.4 -0.6z"/>
  <path d="M113 49.5 c0 -2.7 0.4 -3.5 1.8 -3.5 1.1 0 2.5 1.4 3.5 3.5 l1.7 3.5 -3.5 0 c-3.3 0 -3.5 -0.2 -3.5 -3.5z"/>
  <path d="M151.5 39.5 c-1.4 -1.3 -2.5 -2.9 -2.5 -3.5 0 -1.7 2.5 -1.1 3.8 1 0.7 1.2 2.3 2 4 2 2.6 0.1 2.6 0.1 0.8 1.5 -2.7 2 -3.3 1.9 -6.1 -1z"/>
  <path d="M55 36.7 c0 -2.1 0.6 -3 2 -3.4 1.1 -0.3 2 -0.9 2 -1.4 0 -0.5 1.1 -0.9 2.3 -0.9 1.6 0 2.8 0.9 3.6 2.8 1 2.2 1 2.5 0 1.5 -1.5 -1.5 -4.9 -1.7 -4.9 -0.3 0 0.6 -0.5 1 -1.1 1 -0.7 0 -1.8 0.8 -2.5 1.8 -1.2 1.5 -1.3 1.4 -1.4 -1.1z"/>
  <path d="M139.1 33.1 c-1.5 -2.8 -1.4 -3.1 1.1 -3.1 3.3 0 0.9 -1.9 -3 -2.4 -4.1 -0.4 -4.4 -0.8 -3.6 -4 0.4 -1.9 1.3 -2.6 2.9 -2.6 1.3 0 2.7 0.5 3 1 0.3 0.6 1.5 1 2.5 1 2 0 3.6 1.7 2.6 2.7 -0.3 0.4 -1.6 0.2 -2.9 -0.4 -4.1 -2 -5.9 -2.4 -5.5 -1.1 0.3 0.7 1.5 1.5 2.9 1.6 3.9 0.6 4.9 1.9 3.7 5.3 -1.3 3.8 -2.5 4.4 -3.7 2z"/>
  <path d="M73.1 31.3 c-0.1 -1.2 -0.7 -2.3 -1.3 -2.6 -1 -0.3 -1 -0.9 -0.3 -2.2 1.3 -2.1 5.5 -4 5.5 -2.4 0 0.6 -0.9 1.3 -2 1.6 -1.1 0.3 -2 1 -2 1.5 0 0.5 1 0.6 2.3 0.2 3.5 -1.1 4.9 -1 5.4 0.4 0.3 0.8 -0.6 1.2 -2.6 1.2 -2.3 0 -3.4 0.6 -4.1 2.3 -0.9 2.2 -0.9 2.2 -0.9 0z"/>
  <path d="M96.4 27.9 c-1.1 -1.8 -1.1 -5.3 0.1 -6.1 1.2 -0.9 5.8 -1 7.9 -0.2 1.9 0.7 2.1 4.5 0.4 6.2 -1.5 1.5 -7.5 1.6 -8.4 0.1z m6.1 -3.4 c0 -1.5 -0.7 -2.1 -3 -2.2 -2.8 -0.3 -2.8 -0.2 -0.7 0.7 2.6 1.1 2.1 3.3 -0.5 2.3 -1.1 -0.4 -1.4 -0.3 -0.9 0.6 1.2 2 5.1 0.9 5.1 -1.4z"/>
 </g>
 <g fill="#073084">
  <path d="M71 162 c0 -0.6 -3.3 -1 -7.7 -1 -4.3 0 -10.1 -0.3 -13 -0.6 l-5.2 -0.7 2.1 -4 c1.1 -2.2 3 -4.8 4.1 -5.8 1.2 -0.9 2.2 -2.7 2.2 -4 0.1 -1.3 4.3 -10.7 9.4 -20.8 l9.3 -18.3 2.6 2.3 c1.4 1.3 3.6 3.6 4.9 5.1 1.3 1.5 3.3 3 4.4 3.3 1 0.4 1.7 1 1.4 1.5 -0.3 0.5 0.6 3 2.1 5.5 1.4 2.6 2.4 4.9 2.1 5.1 -0.2 0.3 -1.7 0 -3.2 -0.6 -4.1 -1.6 -4.1 -0.5 0 2 2.1 1.3 3.4 2.9 3.3 3.8 -0.3 1.6 2.5 2.6 11.5 3.9 2.6 0.4 4.3 1.4 5.8 3.4 2.6 3.6 1.9 6.3 -1.3 5.4 -1.9 -0.6 -2.1 -0.5 -1 0.6 0.6 0.7 1.2 2.2 1.2 3.3 0 1.2 0.7 3.4 1.5 5 0.9 1.6 1.4 3.1 1.1 3.3 -0.2 0.2 -6.1 0.7 -13 1 -6.9 0.3 -12.6 1 -12.6 1.5 0 0.4 -2.7 0.8 -6 0.8 -3.3 0 -6 -0.4 -6 -1z"/>
  <path d="M108.5 162.5 c2.6 -0.9 10.5 -1.2 10.5 -0.4 0 0.5 -2.6 0.9 -5.7 0.8 -3.2 0 -5.3 -0.2 -4.8 -0.4z"/>
  <path d="M122 159.5 c-0.7 -0.8 -2.2 -1.5 -3.4 -1.5 -4.9 0 -5.9 -4.3 -2.3 -9.2 2.7 -3.7 9.5 -10.8 12.2 -12.8 1.2 -0.8 3.1 -3.1 4.3 -5.1 1.9 -3.1 2.1 -4.5 1.6 -9.5 l-0.6 -5.9 6.3 -3.7 c5.1 -3 5.9 -3.9 4.3 -4.4 -1 -0.3 -3.3 -1.2 -5.1 -2 -1.7 -0.8 -5.2 -1.4 -7.9 -1.4 -4.7 0 -4.7 0 -2.9 2 1.8 2 1.7 2.1 -2.1 5.5 -3.5 3.1 -3.7 3.5 -1.6 3.5 3.1 0 2.7 1.7 -1.3 5.5 -8.4 7.7 -22.5 7.2 -22.5 -0.8 0 -2.4 -3.7 -6.6 -6.1 -7.1 -0.8 -0.1 -3.1 -1 -5.2 -1.9 -2.1 -0.9 -4.1 -1.6 -4.5 -1.5 -1 0.3 -8.5 -2.3 -9.6 -3.3 -0.5 -0.5 -0.4 -1.4 0.3 -2.2 0.6 -0.8 1 -2.3 0.9 -3.4 -0.4 -2.5 20.3 -43.3 22 -43.3 0.7 0 1.2 -1.3 1.2 -3 0 -1.9 0.7 -3.3 2 -4 1.1 -0.6 2 -2.1 2 -3.4 0 -1.6 0.7 -2.6 2.1 -2.9 1.5 -0.4 2 -1.2 1.8 -2.9 -0.3 -2.6 0.9 -6.8 1.9 -6.8 0.4 0 2.4 3.3 4.4 7.4 2.6 5.2 3.3 7.6 2.5 8 -0.8 0.3 -0.7 0.5 0.3 0.5 1.8 0.1 56.4 108.6 55.5 110.1 -0.4 0.6 -10.2 1 -24.9 1 -20.4 0 -24.6 -0.2 -25.6 -1.5z"/>
 </g>
<g opacity="0.5" transform="rotate(-45, 108.0, 112.0)">
  <text x="50%" y="50%" font-size="20" text-anchor="middle" fill="lightgray" dominant-baseline="middle">
    generated by vectorizer.io
  </text>
</g>
</svg>